<svg xmlns="http://www.w3.org/2000/svg" width="1200" height="720" viewBox="0 0 1200 720">
  <title>Multi-Mode Intelligent Car</title>
  <desc>Technical illustration of an STM32 intelligent car with line tracking, ultrasonic sensing, and Bluetooth control.</desc>
  <defs>
    <radialGradient id="bg"><stop stop-color="#173947"/><stop offset="1" stop-color="#07131e"/></radialGradient>
    <linearGradient id="panel" x2="1" y2="1"><stop stop-color="#24505a"/><stop offset="1" stop-color="#0a1723"/></linearGradient>
    <pattern id="grid" width="40" height="40" patternUnits="userSpaceOnUse"><path d="M40 0H0V40" fill="none" stroke="#67e8f9" stroke-opacity=".055"/></pattern>
  </defs>
  <rect width="1200" height="720" fill="url(#bg)"/><rect width="1200" height="720" fill="url(#grid)"/>
  <g fill="none" stroke="#67e8f9"><circle cx="600" cy="352" r="225" opacity=".09"/><circle cx="600" cy="352" r="285" opacity=".045"/><path d="M0 365h256l90-64h108M746 302h112l92 63h250" opacity=".26" stroke-width="2"/></g>
  <g transform="translate(350 190)" stroke="#99f6e4" stroke-width="3">
    <path d="M80 119h340l42 72-31 116H70L38 191z" fill="url(#panel)" stroke-opacity=".58"/>
    <rect x="150" y="145" width="200" height="111" rx="14" fill="#0c202a" stroke-opacity=".42"/>
    <text x="250" y="195" fill="#ccfbf1" stroke="none" font-family="Arial,sans-serif" font-size="28" font-weight="700" text-anchor="middle">STM32</text>
    <text x="250" y="224" fill="#67e8f9" stroke="none" font-family="Arial,sans-serif" font-size="13" letter-spacing="4" text-anchor="middle">F103C8T6</text>
    <circle cx="91" cy="310" r="61" fill="#09131d"/><circle cx="408" cy="310" r="61" fill="#09131d"/>
    <circle cx="91" cy="310" r="26" fill="#183847" stroke-opacity=".5"/><circle cx="408" cy="310" r="26" fill="#183847" stroke-opacity=".5"/>
    <g transform="translate(190 41)"><rect width="120" height="72" rx="18" fill="#0b202a" stroke-opacity=".6"/><circle cx="35" cy="36" r="19" fill="#102f3a"/><circle cx="85" cy="36" r="19" fill="#102f3a"/></g>
    <path d="M204 18q46-48 92 0M220 31q30-31 60 0M238 45q12-13 24 0" fill="none" stroke-linecap="round" opacity=".65"/>
    <path d="M121 269h257M140 281h220" opacity=".32" stroke-dasharray="8 10"/>
    <circle cx="173" cy="278" r="5" fill="#99f6e4"/><circle cx="250" cy="278" r="5" fill="#99f6e4"/><circle cx="327" cy="278" r="5" fill="#99f6e4"/>
  </g>
  <g font-family="Arial,sans-serif"><text x="72" y="102" fill="#67e8f9" opacity=".7" font-size="16" letter-spacing="3">TIANWEN / ASSIGNMENTS</text><text x="600" y="606" fill="#d5fffa" font-size="28" font-weight="700" letter-spacing="5" text-anchor="middle">INTELLIGENT CAR</text><text x="72" y="645" fill="#67e8f9" opacity=".62" font-size="14" letter-spacing="3">TRACK / AVOID / CONNECT</text><text x="1128" y="645" fill="#67e8f9" opacity=".62" font-size="12" letter-spacing="3" text-anchor="end">STM32 COURSEWORK</text></g>
</svg>
