<svg xmlns="http://www.w3.org/2000/svg" width="1200" height="720" viewBox="0 0 1200 720" style="--accent:#6ee7c4"><title>THE KNOWLEDGE KIT</title><desc>LEARN / ORGANIZE / SHARE — TianWen project illustration.</desc><defs><radialGradient id="bg"><stop stop-color="#163b36"/><stop offset="1" stop-color="#08131e"/></radialGradient><linearGradient id="panel" x2="1" y2="1"><stop stop-color="#163b36"/><stop offset="1" stop-color="#0a1622"/></linearGradient><linearGradient id="fade" x2="0" y2="1"><stop stop-color="#6ee7c4" stop-opacity=".24"/><stop offset="1" stop-color="#6ee7c4" stop-opacity="0"/></linearGradient><pattern id="grid" width="40" height="40" patternUnits="userSpaceOnUse"><path d="M40 0H0V40" fill="none" stroke="#6ee7c4" stroke-opacity=".055"/></pattern></defs><rect width="1200" height="720" fill="url(#bg)"/><rect width="1200" height="720" fill="url(#grid)"/><g fill="none" stroke="#6ee7c4"><circle cx="600" cy="350" r="220" opacity=".1"/><circle cx="600" cy="350" r="286" opacity=".055"/><path d="M0 360H210M990 360H1200" opacity=".18"/></g><g font-family="Arial,sans-serif">
<g fill="url(#panel)" stroke="#6ee7c4"><rect x="376" y="195" width="373" height="298" rx="16" transform="rotate(-12 562 344)" stroke-opacity=".2"/><rect x="399" y="212" width="373" height="298" rx="16" transform="rotate(7 585 361)" stroke-opacity=".25"/><rect x="406" y="206" width="388" height="307" rx="18" stroke-opacity=".55"/><path d="M452 276h192M452 301h136" opacity=".45" stroke-width="5" stroke-linecap="round"/><path d="M452 352h283M452 375h242M452 398h264M452 421h189" opacity=".2" stroke-width="3" stroke-linecap="round"/>
<path d="M707 206v80l20-13 20 13v-80" fill="#6ee7c4" fill-opacity=".15" stroke-opacity=".5"/></g>
<g transform="translate(764 441)"><rect x="-53" y="-43" width="106" height="86" rx="16" fill="#102b2a" stroke="#6ee7c4" stroke-opacity=".6"/><path d="M-19-13l-14 13 14 13M19-13l14 13-14 13M6-19l-12 38" fill="none" stroke="#6ee7c4" stroke-width="3" stroke-linecap="round"/></g>
<g fill="#cbfcec"><text x="600" y="558" font-size="27" text-anchor="middle" font-weight="700" letter-spacing="4">THE KNOWLEDGE KIT</text></g>
<g fill="#6ee7c4" opacity=".65" letter-spacing="3"><text x="72" y="102" font-size="16" >TIANWEN / RESOURCES</text><text x="72" y="629" font-size="14" >LEARN / ORGANIZE / SHARE</text><text x="1128" y="629" font-size="12" text-anchor="end">PROJECT SERIES</text></g></g></svg>
