<svg xmlns="http://www.w3.org/2000/svg" width="1200" height="720" viewBox="0 0 1200 720" style="--accent:#fcd39b"><title>WiFi SERVO</title><desc>WIRELESS CONTROL / ESP8266 — TianWen project illustration.</desc><defs><radialGradient id="bg"><stop stop-color="#3f2b26"/><stop offset="1" stop-color="#08131e"/></radialGradient><linearGradient id="panel" x2="1" y2="1"><stop stop-color="#3f2b26"/><stop offset="1" stop-color="#0a1622"/></linearGradient><linearGradient id="fade" x2="0" y2="1"><stop stop-color="#fcd39b" stop-opacity=".24"/><stop offset="1" stop-color="#fcd39b" stop-opacity="0"/></linearGradient><pattern id="grid" width="40" height="40" patternUnits="userSpaceOnUse"><path d="M40 0H0V40" fill="none" stroke="#fcd39b" stroke-opacity=".055"/></pattern></defs><rect width="1200" height="720" fill="url(#bg)"/><rect width="1200" height="720" fill="url(#grid)"/><g fill="none" stroke="#fcd39b"><circle cx="600" cy="350" r="220" opacity=".1"/><circle cx="600" cy="350" r="286" opacity=".055"/><path d="M0 360H210M990 360H1200" opacity=".18"/></g><g font-family="Arial,sans-serif">
<path d="M365 350H455L500 400H566" fill="none" stroke="var(--accent)" stroke-width="2" opacity=".4"/><path d="M751 400H870L925 345H1200" fill="none" stroke="var(--accent)" stroke-width="2" opacity=".3"/>
<g stroke="#fcd39b" fill="none"><rect x="251" y="219" width="140" height="261" rx="23" fill="url(#panel)" stroke-opacity=".55"/><rect x="267" y="254" width="108" height="184" rx="9" stroke-opacity=".18"/><path d="M297 235H344" stroke-opacity=".5"/><circle cx="321" cy="458" r="5" stroke-opacity=".5"/><circle cx="321" cy="346" r="29" fill="#fcd39b" fill-opacity=".06"/><path d="M321 326v19m-13-13a20 20 0 1 0 26 0" stroke-width="3"/>
<path d="M442 272q72-75 144 0M464 295q50-51 100 0M486 317q28-28 56 0" stroke-width="3" stroke-linecap="round" opacity=".65"/><circle cx="514" cy="341" r="5" fill="#fcd39b"/>
<rect x="606" y="301" width="206" height="170" rx="20" fill="url(#panel)" stroke-opacity=".6"/><path d="M627 325v122M790 325v122" stroke-opacity=".2"/><circle cx="709" cy="361" r="43" stroke-opacity=".4"/><path d="M709 361l-48-66q-9-14 4-24q13-8 22 7l37 72" fill="#422f28" stroke-width="2"/><circle cx="709" cy="361" r="13" fill="#fcd39b" fill-opacity=".2"/><path d="M812 421h35v57h61" stroke-opacity=".4"/></g>
<g fill="#fce3be"><text x="709" y="427" font-size="24" text-anchor="middle" letter-spacing="3">SG90</text><text x="600" y="535" font-size="31" text-anchor="middle" font-weight="700" letter-spacing="5">WiFi SERVO</text></g>
<g fill="#fcd39b" opacity=".65" letter-spacing="3"><text x="72" y="102" font-size="16" >TIANWEN / HARDWARE</text><text x="72" y="629" font-size="14" >WIRELESS CONTROL / ESP8266</text><text x="1128" y="629" font-size="12" text-anchor="end">PROJECT SERIES</text></g></g></svg>
